<?xml version="1.0" encoding="UTF-8" standalone="no"?>
<!-- Creator: CorelDRAW X6 -->

<svg
   xmlns:dc="http://purl.org/dc/elements/1.1/"
   xmlns:cc="http://creativecommons.org/ns#"
   xmlns:rdf="http://www.w3.org/1999/02/22-rdf-syntax-ns#"
   xmlns:svg="http://www.w3.org/2000/svg"
   xmlns="http://www.w3.org/2000/svg"
   xmlns:xlink="http://www.w3.org/1999/xlink"
   xmlns:sodipodi="http://sodipodi.sourceforge.net/DTD/sodipodi-0.dtd"
   xmlns:inkscape="http://www.inkscape.org/namespaces/inkscape"
   xml:space="preserve"
   width="895.36096"
   height="435.10022"
   version="1.1"
   style="clip-rule:evenodd;fill-rule:evenodd;image-rendering:optimizeQuality;shape-rendering:geometricPrecision;text-rendering:geometricPrecision"
   viewBox="0 0 9948.5409 4834.5754"
   id="svg2"
   inkscape:version="0.91 r13725"
   sodipodi:docname="43353_3.svg"><metadata
     id="metadata101"><rdf:RDF><cc:Work
         rdf:about=""><dc:format>image/svg+xml</dc:format><dc:type
           rdf:resource="http://purl.org/dc/dcmitype/StillImage" /><dc:title></dc:title></cc:Work></rdf:RDF></metadata><sodipodi:namedview
     pagecolor="#ffffff"
     bordercolor="#666666"
     borderopacity="1"
     objecttolerance="10"
     gridtolerance="10"
     guidetolerance="10"
     inkscape:pageopacity="0"
     inkscape:pageshadow="2"
     inkscape:window-width="1278"
     inkscape:window-height="752"
     id="namedview99"
     showgrid="false"
     units="px"
     inkscape:zoom="0.31716157"
     inkscape:cx="526.18049"
     inkscape:cy="372.05011"
     inkscape:window-x="0"
     inkscape:window-y="0"
     inkscape:window-maximized="0"
     inkscape:current-layer="svg2" /><defs
     id="defs4"><style
       type="text/css"
       id="style6"><![CDATA[
    .fil0 {fill:#363843;fill-rule:nonzero}
    .fil2 {fill:#414453;fill-rule:nonzero}
    .fil1 {fill:#4D5163;fill-rule:nonzero}
    .fil3 {fill:#585F74;fill-rule:nonzero}
    .fil4 {fill:#D7DF36;fill-rule:nonzero}
    .fil5 {fill:#FEFEFE;fill-rule:nonzero}
    .fil8 {fill:url(#id0);fill-rule:nonzero}
    .fil7 {fill:url(#id1);fill-rule:nonzero}
    .fil9 {fill:url(#id2);fill-rule:nonzero}
    .fil11 {fill:url(#id3);fill-rule:nonzero}
    .fil6 {fill:url(#id4);fill-rule:nonzero}
    .fil10 {fill:url(#id5);fill-rule:nonzero}
   ]]></style><linearGradient
       id="id0"
       gradientUnits="userSpaceOnUse"
       x1="2447.1799"
       y1="4368.4102"
       x2="2447.1799"
       y2="4812.0801"><stop
         offset="0"
         style="stop-color:#E3DBB6"
         id="stop9" /><stop
         offset="1"
         style="stop-color:#C0B885"
         id="stop11" /></linearGradient><linearGradient
       id="id1"
       gradientUnits="userSpaceOnUse"
       xlink:href="#id0"
       x1="2955.6799"
       y1="4368.4102"
       x2="2955.6799"
       y2="4812.0801" /><linearGradient
       id="id2"
       gradientUnits="userSpaceOnUse"
       xlink:href="#id0"
       x1="3592.4199"
       y1="4368.4102"
       x2="3592.4199"
       y2="4812.0801" /><linearGradient
       id="id3"
       gradientUnits="userSpaceOnUse"
       xlink:href="#id0"
       x1="5118.0898"
       y1="4368.4102"
       x2="5118.0898"
       y2="4812.0801" /><linearGradient
       id="id4"
       gradientUnits="userSpaceOnUse"
       xlink:href="#id0"
       x1="1884.08"
       y1="4374.02"
       x2="1884.08"
       y2="4817.9102" /><linearGradient
       id="id5"
       gradientUnits="userSpaceOnUse"
       xlink:href="#id0"
       x1="4372.6899"
       y1="4374.02"
       x2="4372.6899"
       y2="4817.9102" /><linearGradient
       inkscape:collect="always"
       xlink:href="#id0"
       id="linearGradient4229"
       gradientUnits="userSpaceOnUse"
       x1="2447.1799"
       y1="4368.4102"
       x2="2447.1799"
       y2="4812.0801" /></defs><g
     id="__x0023_Layer_x0020_1"
     transform="translate(-866.6896,-1700.0427)"><metadata
       id="CorelCorpID_0Corel-Layer" /><path
       class="fil0"
       d="m 1003,5556 c -23,0 -45,-10 -59,-28 -15,-18 -20,-41 -16,-64 l 445,-2268 c 7,-36 39,-62 75,-62 l 9222,0 c 23,0 45,10 59,28 15,18 20,41 16,64 l -445,2268 c -7,36 -39,62 -75,62 l -9222,0 z"
       id="path20"
       inkscape:connector-curvature="0"
       style="fill:#363843;fill-rule:nonzero" /><path
       class="fil0"
       d="M 9235,5226 9015,4503 8731,3569 8547,2966 8226,1912 c -16,-51 -51,-91 -94,-115 -44,-23 -97,-30 -148,-14 l -723,220 -934,284 -603,184 -1054,321 c -51,16 -91,50 -115,94 -23,44 -30,97 -14,148 l 220,723 284,934 184,603 321,1054 c 16,51 51,91 94,115 44,23 97,30 148,14 l 723,-220 934,-284 603,-184 1054,-321 c 51,-16 91,-50 115,-94 23,-44 30,-97 14,-148 z"
       id="path22"
       inkscape:connector-curvature="0"
       style="fill:#363843;fill-rule:nonzero" /><g
       id="_154319856"><path
         class="fil1"
         d="m 10466,3508 c 0,83 -66,148 -151,148 -84,0 -152,-65 -152,-148 0,-83 67,-147 153,-147 83,0 150,65 150,147 z m -265,0 0,0 c 0,66 49,118 115,118 64,1 112,-52 112,-117 0,-65 -48,-118 -114,-118 -64,0 -113,53 -113,118 z m 91,76 0,0 -34,0 0,-147 c 13,-2 32,-4 57,-4 28,0 40,4 50,12 9,6 15,17 15,31 0,18 -13,30 -30,35 l 0,2 c 14,4 22,16 26,36 4,22 8,31 11,36 l -36,0 c -4,-5 -7,-18 -12,-36 -3,-15 -12,-22 -31,-22 l -16,0 0,58 z m 1,-83 0,0 16,0 c 19,0 34,-6 34,-22 0,-13 -10,-22 -31,-22 -9,0 -15,1 -19,2 l 0,42 z"
         id="path25"
         inkscape:connector-curvature="0"
         style="fill:#4d5163;fill-rule:nonzero" /></g><g
       id="_154320216"><g
         id="g28"><path
           class="fil2"
           d="M 6888,4130 5645,6462 c 44,23 97,30 148,14 l 723,-220 372,-2127 z"
           id="path30"
           inkscape:connector-curvature="0"
           style="fill:#414453;fill-rule:nonzero" /><path
           class="fil2"
           d="M 9235,5226 9015,4503 6888,4131 9220,5374 c 23,-44 30,-97 14,-148 z"
           id="path32"
           inkscape:connector-curvature="0"
           style="fill:#414453;fill-rule:nonzero" /><path
           class="fil2"
           d="M 6888,4130 4556,2887 c -23,44 -30,97 -14,148 l 220,723 2127,372 0,0 z"
           id="path34"
           inkscape:connector-curvature="0"
           style="fill:#414453;fill-rule:nonzero" /><path
           class="fil2"
           d="M 6888,4130 8131,1798 c -44,-23 -97,-30 -148,-14 l -723,220 -372,2127 z"
           id="path36"
           inkscape:connector-curvature="0"
           style="fill:#414453;fill-rule:nonzero" /></g><g
         id="g38"><polygon
           class="fil0"
           points="9015,4503 8730,3569 6888,4130 "
           id="polygon40"
           style="fill:#363843;fill-rule:nonzero" /><polygon
           class="fil0"
           points="7449,5972 6888,4130 6516,6257 "
           id="polygon42"
           style="fill:#363843;fill-rule:nonzero" /><polygon
           class="fil0"
           points="5046,4691 6888,4130 4762,3758 "
           id="polygon44"
           style="fill:#363843;fill-rule:nonzero" /><polygon
           class="fil0"
           points="7261,2004 6327,2288 6888,4130 "
           id="polygon46"
           style="fill:#363843;fill-rule:nonzero" /></g><g
         id="g48"><path
           class="fil1"
           d="m 6888,4130 -1659,1164 321,1054 c 16,51 51,91 94,115 l 1243,-2332 0,0 z"
           id="path50"
           inkscape:connector-curvature="0"
           style="fill:#4d5163;fill-rule:nonzero" /><path
           class="fil1"
           d="m 6888,4130 1164,1659 1054,-321 c 51,-16 91,-50 115,-94 L 6889,4131 Z"
           id="path52"
           inkscape:connector-curvature="0"
           style="fill:#4d5163;fill-rule:nonzero" /><path
           class="fil1"
           d="M 8547,2966 8226,1912 c -16,-51 -51,-91 -94,-115 L 6889,4129 8548,2965 Z"
           id="path54"
           inkscape:connector-curvature="0"
           style="fill:#4d5163;fill-rule:nonzero" /><path
           class="fil1"
           d="M 6888,4130 5724,2471 4670,2792 c -51,16 -91,50 -115,94 l 2332,1243 z"
           id="path56"
           inkscape:connector-curvature="0"
           style="fill:#4d5163;fill-rule:nonzero" /></g><g
         id="g58"><polygon
           class="fil3"
           points="7449,5972 8052,5789 6888,4130 "
           id="polygon60"
           style="fill:#585f74;fill-rule:nonzero" /><polygon
           class="fil3"
           points="5046,4691 5230,5294 6888,4130 6888,4130 "
           id="polygon62"
           style="fill:#585f74;fill-rule:nonzero" /><polygon
           class="fil3"
           points="8730,3569 8547,2966 6888,4130 "
           id="polygon64"
           style="fill:#585f74;fill-rule:nonzero" /><polygon
           class="fil3"
           points="6327,2288 5724,2472 6888,4130 "
           id="polygon66"
           style="fill:#585f74;fill-rule:nonzero" /></g></g><path
       class="fil4"
       d="m 10058,4137 c -5,-19 -14,-31 -28,-36 -5,-2 -9,-2 -14,-2 -10,0 -20,3 -32,10 -17,10 -32,29 -44,56 -11,27 -29,60 -54,96 -25,37 -57,72 -96,106 -39,34 -84,62 -137,85 -52,23 -112,35 -178,35 -30,0 -53,-7 -69,-20 -16,-13 -27,-31 -33,-54 -6,-23 -6,-50 -1,-81 5,-31 13,-63 24,-96 27,5 58,8 93,8 7,0 15,0 22,0 44,-1 97,-12 158,-34 46,-16 89,-41 129,-75 40,-34 74,-71 102,-112 28,-41 48,-84 59,-128 11,-44 12,-85 1,-121 -11,-36 -34,-66 -70,-89 -36,-23 -89,-35 -157,-35 -105,0 -197,23 -276,70 -79,47 -144,106 -194,177 -34,48 -60,98 -80,151 -6,15 -11,30 -15,46 -3,11 -6,21 -8,32 -4,17 -7,34 -9,51 -9,19 -21,40 -36,63 -4,6 -8,12 -13,18 -6,8 -12,16 -18,24 -20,26 -42,52 -66,76 -31,31 -62,58 -96,80 -33,22 -63,34 -91,37 -1,0 -2,0 -3,0 -17,0 -22,-11 -17,-33 6,-23 18,-53 38,-91 20,-37 45,-80 75,-127 30,-47 59,-94 88,-140 29,-46 54,-89 77,-128 22,-39 37,-70 43,-93 7,-29 3,-56 -12,-83 -16,-27 -37,-50 -63,-68 -26,-19 -55,-31 -85,-37 -9,-2 -19,-3 -27,-3 -19,0 -36,4 -51,13 -20,11 -44,32 -71,61 -27,29 -57,64 -88,103 -31,39 -64,82 -97,128 -34,46 -67,92 -99,139 29,-60 56,-113 81,-160 25,-47 44,-85 58,-113 14,-29 13,-56 -3,-82 -16,-26 -37,-48 -66,-65 -28,-17 -58,-27 -90,-29 -4,0 -7,0 -11,0 -27,0 -49,8 -67,25 -22,15 -48,40 -78,74 -29,34 -61,74 -95,118 -34,44 -68,92 -102,142 -34,51 -67,100 -98,149 34,-70 65,-131 94,-184 29,-52 51,-95 67,-127 10,-21 12,-42 5,-64 -7,-21 -19,-41 -36,-58 -17,-17 -37,-32 -60,-45 -23,-12 -47,-21 -70,-24 -8,-1 -16,-2 -24,-2 -15,0 -28,2 -41,7 -20,7 -34,21 -43,42 -15,34 -30,83 -46,149 -16,66 -31,137 -46,214 -15,77 -29,155 -41,234 -12,79 -23,147 -32,206 -5,34 -3,57 7,70 8,11 18,16 30,16 3,0 6,0 9,-1 16,-3 33,-13 51,-29 17,-16 31,-37 41,-64 0,-2 1,-4 2,-6 20,-31 46,-71 77,-118 31,-47 66,-98 103,-152 37,-54 76,-107 117,-161 41,-54 80,-102 117,-146 -14,47 -27,97 -41,150 -14,52 -27,105 -38,156 -12,52 -23,102 -33,152 -10,49 -17,93 -22,132 -5,32 -2,55 8,68 8,11 19,17 31,17 2,0 5,0 7,-1 16,-2 32,-12 50,-28 17,-16 31,-37 41,-62 22,-34 53,-78 91,-132 38,-54 79,-112 124,-172 44,-61 90,-120 136,-178 46,-58 89,-107 129,-147 -15,44 -32,91 -52,143 -20,52 -39,105 -56,158 -18,54 -32,106 -43,155 -11,50 -16,94 -13,133 2,39 14,70 35,94 21,24 53,36 98,36 52,0 104,-15 155,-44 51,-29 97,-65 139,-106 8,-8 15,-15 22,-23 8,-9 16,-17 23,-26 8,-9 16,-18 23,-28 3,12 8,23 12,34 4,10 9,20 14,30 18,34 42,64 72,90 54,47 127,70 221,70 80,0 152,-14 216,-43 64,-29 120,-64 168,-105 47,-41 86,-84 117,-129 31,-45 52,-83 63,-114 12,-31 16,-56 11,-75 z m -540,-135 0,0 c 28,-42 57,-81 88,-114 31,-34 61,-61 91,-81 30,-21 57,-31 82,-31 31,0 50,14 56,42 6,28 2,61 -12,98 -14,37 -38,75 -72,111 -34,37 -74,65 -122,83 -36,14 -70,22 -102,24 -13,1 -25,2 -37,2 -17,0 -34,-1 -49,-3 22,-45 48,-89 76,-131 z"
       id="path68"
       inkscape:connector-curvature="0"
       style="fill:#d7df36;fill-rule:nonzero" /><path
       class="fil4"
       d="m 10035,4779 c -265,-39 -532,-56 -799,-56 -285,0 -570,19 -854,49 -246,26 -496,79 -736,141 -68,18 -126,31 -163,90 -15,24 -40,85 3,85 5,0 11,-1 19,-3 0,0 459,-92 689,-119 225,-26 451,-39 677,-39 328,0 656,26 980,74 4,1 9,1 13,1 58,0 117,-56 150,-96 15,-18 83,-119 21,-129 z"
       id="path70"
       inkscape:connector-curvature="0"
       style="fill:#d7df36;fill-rule:nonzero" /><path
       class="fil5"
       d="m 7553,4463 c 31,-46 56,-93 75,-142 19,-49 30,-92 31,-131 1,-39 -7,-69 -25,-90 -11,-13 -27,-19 -48,-19 -14,0 -31,3 -50,8 l -196,54 c 78,-128 155,-252 232,-373 76,-121 146,-232 209,-334 63,-102 115,-189 156,-263 42,-74 67,-127 75,-161 19,-70 9,-144 -31,-223 -40,-79 -93,-148 -156,-207 -64,-58 -131,-98 -200,-119 -22,-7 -43,-10 -62,-10 -41,0 -74,15 -101,45 -239,217 -495,477 -768,780 -273,303 -567,650 -885,1039 -42,53 -67,101 -75,144 -8,43 -6,79 8,106 8,22 29,38 61,48 11,3 22,5 35,5 25,0 55,-7 88,-20 108,-39 220,-61 334,-67 38,-2 75,-3 112,-3 74,0 147,4 217,11 -39,125 -73,246 -102,363 -29,117 -51,230 -65,338 -11,64 -4,115 21,154 25,39 56,64 94,75 14,4 27,6 41,6 24,0 47,-6 70,-19 36,-20 61,-56 75,-108 22,-92 64,-202 125,-330 61,-128 132,-264 213,-409 61,14 115,24 161,29 23,3 44,4 62,4 18,0 35,-1 49,-4 39,-6 78,-26 117,-61 39,-35 74,-75 104,-121 z m -628,-812 0,0 c -85,192 -163,391 -236,597 -95,6 -182,11 -261,17 -79,6 -169,21 -269,46 67,-78 143,-168 227,-271 85,-103 172,-209 261,-317 89,-108 178,-214 267,-317 89,-103 171,-196 246,-280 -72,159 -151,334 -236,526 z"
       id="path72"
       inkscape:connector-curvature="0"
       style="fill:#fefefe;fill-rule:nonzero" /><g
       id="_154318728"><path
         class="fil6"
         d="m 1724,4385 164,108 c 36,23 43,34 43,44 0,26 -8,60 -77,60 -60,0 -174,-11 -236,-17 l -18,-2 -3,0 c -22,0 -40,16 -44,38 l -27,157 0,5 c 0,12 6,27 33,36 77,23 160,34 254,34 208,0 430,-92 430,-349 0,-62 -16,-113 -51,-155 l -516,0 c 14,16 30,30 48,41 z"
         id="path75"
         inkscape:connector-curvature="0"
         style="fill:url(#id4);fill-rule:nonzero" /><path
         class="fil7"
         d="m 2771,4795 0,6 c 0,21 14,36 34,36 l 209,0 c 22,0 42,-17 46,-38 l 79,-455 -290,0 -79,451 z"
         id="path77"
         inkscape:connector-curvature="0"
         style="fill:url(#id1);fill-rule:nonzero" /><path
         class="fil8"
         d="m 2263,4795 0,6 c 0,21 15,36 36,36 l 208,0 c 22,0 42,-17 46,-38 l 80,-455 -290,0 -79,451 z"
         id="path79"
         inkscape:connector-curvature="0"
         style="fill:url(#linearGradient4229);fill-rule:nonzero" /><path
         class="fil9"
         d="m 3163,4795 0,5 c 0,21 15,37 36,37 l 208,0 c 21,0 40,-16 44,-38 l 47,-269 201,0 -47,265 0,6 c 0,21 14,36 34,36 l 207,0 c 22,0 43,-17 47,-38 l 80,-455 -778,0 -79,451 z"
         id="path81"
         inkscape:connector-curvature="0"
         style="fill:url(#id2);fill-rule:nonzero" /><path
         class="fil10"
         d="m 4082,4413 c -7,40 -10,75 -10,105 0,204 132,330 345,330 103,0 168,-18 184,-23 21,-6 38,-13 42,-40 l 29,-164 0,-8 c 0,-21 -13,-33 -34,-33 l -5,0 -17,2 c -47,5 -96,10 -160,10 -47,0 -90,-12 -90,-99 0,-20 2,-45 7,-75 l 14,-74 -293,0 -13,69 z"
         id="path83"
         inkscape:connector-curvature="0"
         style="fill:url(#id5);fill-rule:nonzero" /><g
         id="g85"><path
           class="fil5"
           d="m 2108,4274 -155,-91 c -41,-24 -48,-33 -48,-41 0,-9 0,-38 57,-38 77,0 193,9 256,14 l 30,2 3,0 c 21,0 38,-15 42,-37 l 28,-160 0,-5 c 0,-24 -22,-32 -30,-35 -50,-15 -183,-32 -286,-32 -259,0 -396,108 -396,312 0,69 25,133 68,181 l 516,0 c -21,-26 -49,-49 -84,-70 z"
           id="path87"
           inkscape:connector-curvature="0"
           style="fill:#fefefe;fill-rule:nonzero" /><path
           class="fil5"
           d="m 3169,4133 c 0,-253 -214,-282 -374,-282 -56,0 -213,11 -281,22 -63,9 -94,27 -107,105 l -64,366 290,0 41,-237 c 29,-3 65,-5 109,-5 74,0 94,15 94,70 0,17 -2,36 -6,61 l -19,111 290,0 18,-106 c 7,-42 10,-76 10,-105 z"
           id="path89"
           inkscape:connector-curvature="0"
           style="fill:#fefefe;fill-rule:nonzero" /><path
           class="fil5"
           d="m 4061,4087 c 0,-152 -105,-236 -296,-236 l -98,0 c -208,0 -346,51 -391,302 l -34,191 778,0 33,-186 c 4,-28 7,-51 7,-71 z m -294,61 0,0 -1,5 -24,137 -201,0 23,-132 c 7,-43 20,-53 64,-53 l 98,0 c 43,0 43,11 43,25 0,5 -1,11 -2,17 z"
           id="path91"
           inkscape:connector-curvature="0"
           style="fill:#fefefe;fill-rule:nonzero" /><path
           class="fil5"
           d="m 4546,4109 c 64,0 112,5 158,10 l 18,2 4,0 c 22,0 38,-14 42,-37 l 29,-164 0,-8 c 0,-24 -20,-31 -34,-36 -32,-12 -99,-25 -180,-25 -275,0 -422,133 -477,431 l -11,62 293,0 10,-56 c 30,-165 92,-179 149,-179 z"
           id="path93"
           inkscape:connector-curvature="0"
           style="fill:#fefefe;fill-rule:nonzero" /><path
           class="fil5"
           d="m 5692,3890 c 0,-12 -8,-27 -31,-27 l -250,0 c -21,0 -33,13 -44,26 l -269,350 59,-335 0,-5 c 0,-21 -16,-36 -37,-36 l -207,0 c -22,0 -42,16 -46,37 l -78,443 544,0 346,-427 c 7,-9 11,-18 11,-26 z"
           id="path95"
           inkscape:connector-curvature="0"
           style="fill:#fefefe;fill-rule:nonzero" /></g><path
         class="fil11"
         d="m 4711,4795 0,5 c 0,21 16,37 37,37 l 207,0 c 22,0 42,-17 46,-38 l 62,-357 141,363 c 4,11 11,32 37,32 l 249,0 c 21,0 36,-14 36,-33 0,-7 -3,-14 -4,-15 l -192,-438 6,-7 -544,0 -79,451 z"
         id="path97"
         inkscape:connector-curvature="0"
         style="fill:url(#id3);fill-rule:nonzero" /></g></g></svg>